<?xml version="1.0" standalone="no"?>
<!DOCTYPE svg PUBLIC "-//W3C//DTD SVG 20010904//EN"
 "http://www.w3.org/TR/2001/REC-SVG-20010904/DTD/svg10.dtd">
<svg version="1.0" xmlns="http://www.w3.org/2000/svg"
 width="512.000000pt" height="512.000000pt" viewBox="0 0 512.000000 512.000000"
 preserveAspectRatio="xMidYMid meet">

<g transform="translate(0.000000,512.000000) scale(0.100000,-0.100000)"
fill="#000000" stroke="none">
<path d="M1395 4735 c-451 -72 -815 -375 -958 -795 -64 -188 -61 -118 -65
-1320 -2 -776 0 -1122 8 -1188 58 -468 372 -856 814 -1002 187 -61 162 -60
1365 -60 916 0 1111 2 1187 15 507 82 907 482 989 989 23 139 22 2242 0 2372
-44 248 -160 471 -339 650 -169 169 -357 271 -606 330 -69 17 -161 18 -1195
20 -876 2 -1137 0 -1200 -11z m2067 -375 c244 -23 448 -119 619 -289 173 -173
267 -378 289 -630 14 -155 7 -1663 -8 -1784 -14 -111 -34 -187 -73 -285 -110
-277 -376 -511 -664 -587 -131 -34 -213 -36 -1120 -33 l-900 3 -95 27 c-52 14
-126 40 -164 57 -236 107 -441 325 -526 560 -66 180 -63 134 -67 1071 -3 557
-1 895 6 971 22 234 106 430 257 598 156 174 403 298 637 320 124 12 1683 13
1809 1z"/>
<path d="M3665 3998 c-16 -6 -48 -24 -70 -40 -162 -117 -148 -358 26 -453 44
-24 66 -29 119 -29 75 1 121 18 175 65 110 97 115 302 9 401 -64 60 -178 84
-259 56z"/>
<path d="M2375 3676 c-233 -45 -418 -140 -583 -300 -176 -170 -278 -353 -327
-587 -120 -567 232 -1152 793 -1314 501 -146 1053 106 1296 593 70 139 116
338 116 502 0 510 -346 958 -838 1087 -120 31 -345 41 -457 19z m390 -406
c204 -64 368 -206 456 -395 48 -104 69 -201 69 -323 0 -316 -202 -591 -513
-699 -56 -20 -100 -26 -193 -30 -152 -7 -240 11 -362 72 -150 76 -266 193
-337 338 -56 118 -70 184 -70 337 1 125 3 141 32 223 43 122 85 189 178 283
110 111 227 177 375 209 94 21 274 14 365 -15z"/>
</g>
</svg>
